<svg xmlns="http://www.w3.org/2000/svg" class="icon slide" width="70%" height="70%" viewBox="0 0 18 19">
      <g id="mate">
   <path d="M 8.9 5.9 c 0.3 0 0.6 0.3 1 0.7 c 0.2 0.2 0.4 0.4 0.7 0.6 c 0 0.1 0 0.3 0 0.4 H 8.7 C 8.5 7.3 8.3 7 8.3 6.6 c 0 -0.4 0.2 -0.7 0.6 -0.7 z m 0 6.3 c -0.4 0 -0.6 -0.4 -0.6 -0.7 c 0 -0.4 0.1 -0.7 0.4 -1 h 1.8 c 0 0.1 0 0.3 0 0.4 c -0.3 0.2 -0.5 0.4 -0.7 0.6 c -0.4 0.4 -0.7 0.7 -1 0.7 z M 11.4 4.5 C 10.7 3.8 10 3 8.8 3 C 7.1 3 6 4.2 6 5.9 c 0 0.8 0.2 1.5 0.3 1.9 L 5.7 8 V 7 H 5.4 H 4.3 H 4 V 8.1 H 3.3 H 3 V 8.4 V 9.6 V 9.9 h 0.3 h 0.7 v 1 h 0.3 h 1.1 h 0.3 v -0.9 l 0.5 0.1 c -0.1 0.4 -0.3 1.1 -0.3 1.9 c 0 1.7 1.2 2.9 2.8 2.9 c 1.2 0 1.9 -0.8 2.6 -1.5 c 0.4 -0.4 0.7 -0.8 1.2 -1.1 c 0.1 0.5 0.4 0.7 0.7 0.9 c 0.4 0.2 0.8 0.2 1.3 0.2 H 14.7 H 15 V 13.2 L 15 4.8 V 4.5 H 14.7 H 14.5 c -0.5 0 -0.9 0 -1.3 0.2 C 12.9 4.8 12.7 5.1 12.5 5.6 C 12.1 5.3 11.7 4.9 11.4 4.5 Z" fill="white" style="fill: #ffffff; fill-opacity: 1" id="path1-6"></path>
</g>
    </svg>